# xmcd
#
# Track frame offsets:
#	150
#	19471
#	31617
#	48918
#	64763
#	86209
#	105753
#	127434
#	141420
#	154092
#	169768
#	180292
#	192428
#	207264
#	223281
#	237256
#	257421
#	274058
#	286592
#	301657
#	313705
#	324827
#	337259
#
# Disc length: 4649 seconds
#
# Revision: 0
# Processed by: cddbd v1.5.2PL0 Copyright (c) Steve Scherf et al.
# Submitted via: dBpowerAMP V4.0
#
DISCID=4c122717
DTITLE=Bill Anderson - Best Of [CD1] 
DYEAR=1991
DGENRE=Country
TTITLE0=Trust Me
TTITLE1=One More Sexy Lady
TTITLE2=This Is A Love Song
TTITLE3=I Can't Wait Any Longer
TTITLE4=Kiss You All Over
TTITLE5=Married Lady
TTITLE6=Three Times A Lady
TTITLE7=Deck Of Cards
TTITLE8=Still
TTITLE9=Mama Sang A Song
TTITLE10=I Get The Fever
TTITLE11=My Life (Throw It Away If I Want To)
TTITLE12=Green Green Grass Of Home
TTITLE13=Detroit City
TTITLE14=Unicorn
TTITLE15=I Wonder If God Likes Country Music (With Roy Acuff)
TTITLE16=Southern Fried
TTITLE17=Thank You Darling
TTITLE18=Mr. Peppers
TTITLE19=Bright Lights And Country Music
TTITLE20=No One's Gonna Hurt You Any More
TTITLE21=I Love You Drops
TTITLE22=The Tip Of My Fingers
EXTD=
EXTT0=
EXTT1=
EXTT2=
EXTT3=
EXTT4=
EXTT5=
EXTT6=
EXTT7=
EXTT8=
EXTT9=
EXTT10=
EXTT11=
EXTT12=
EXTT13=
EXTT14=
EXTT15=
EXTT16=
EXTT17=
EXTT18=
EXTT19=
EXTT20=
EXTT21=
EXTT22=
PLAYORDER=
